<svg xmlns="http://www.w3.org/2000/svg" viewBox="0 0 456 456">
  <path d="M 0.275 0.19 C 0.168 0.393 1.852 1.714 4.03 3.162 C 21.241 14.617 28.299 19.536 39.391 27.876 C 74.314 54.221 106.381 84.298 134.995 117.574 C 159.691 146.242 178.37 172.329 196.756 203.804 C 214.237 233.719 229.742 267.62 241.016 300.587 C 256.912 347.029 266.663 397.543 269.287 447.221 L 269.498 451.511 L 305.202 451.931 C 337.693 452.284 340.942 452.269 341.16 451.658 C 341.521 450.641 336.773 427.12 332.647 409.363 C 304.043 285.88 254.834 185.218 187.21 111.761 C 147.972 69.169 104.473 37.648 56.962 17.364 C 41.195 10.658 24.603 5.375 7.257 1.596 C 4.19 0.917 1.405 0.24 1.089 0.075 C 0.737 -0.051 0.383 -0.013 0.275 0.19 Z" style="transform-origin: 193.74px 256.532px;" fill="#000000" stroke="none"></path>
  <path d="M 403.592 63.131 C 393.548 64.803 385.209 69.47 378.541 77.092 C 371.409 85.241 367.119 95.659 366.177 107.045 C 365.391 116.553 366.904 125.754 370.543 134.074 C 382.468 161.126 413.13 169.018 434.264 150.49 C 442.198 143.492 447.757 133.329 449.865 122.035 C 451.271 114.369 451.395 112.206 450.767 107.055 C 449.739 99.043 447.921 92.494 445.175 87.121 C 437.496 72.03 423.586 62.848 408.539 62.927 C 406.314 62.949 404.088 63.013 403.592 63.131 Z" style="transform-origin: 463.687px 126.776px;" fill="#ff0000" stroke="none"></path>
  <path d="M 216.313 73.578 C 205.183 74.016 195.565 75.406 183.178 78.406 C 182.542 78.523 182.01 78.805 182.009 78.927 C 182.008 79.091 184.758 79.562 188.11 79.999 C 237.753 86.211 278.325 100.026 305.462 119.894 C 329.719 137.696 343.771 159.457 347.687 185.38 C 348.425 190.163 348.582 200.905 348.045 206.127 C 346.284 222.447 340.216 238.445 330.746 251.72 C 329.889 252.938 326.783 256.873 323.857 260.442 C 313.472 273.219 308.424 281.467 306.847 288.356 C 305.346 294.795 307.961 298.86 314.03 299.604 C 318.405 300.09 326.334 297.992 331.375 294.971 C 333.753 293.521 341.01 287.415 345.425 283.123 C 349.805 278.831 357.97 269.629 361.113 265.449 C 374.257 247.835 381.328 229.927 383.014 209.971 C 384.818 188.466 377.846 164.6 363.716 143.778 C 360.122 138.521 350.084 126.636 345.459 122.228 C 318.653 96.604 282.911 79.604 245.617 74.802 C 240.713 74.189 226.242 73.17 223.556 73.27 C 222.991 73.306 219.704 73.443 216.313 73.578 Z" style="transform-origin: 320.213px 211.656px;" fill="#4169e1" stroke="none"></path>
</svg>