<svg xmlns="http://www.w3.org/2000/svg" viewBox="0 0 350 350">
  <path d="M 57.362 52.569 C 57.31 52.665 58.115 53.28 59.159 53.955 C 67.394 59.294 70.772 61.586 76.08 65.473 C 92.791 77.753 108.136 91.771 121.829 107.279 C 133.645 120.641 142.585 132.8 151.383 147.47 C 159.748 161.414 167.168 177.214 172.561 192.579 C 180.169 214.226 184.834 237.769 186.092 260.923 L 186.191 262.922 L 203.278 263.119 C 218.825 263.284 220.379 263.275 220.484 262.992 C 220.656 262.517 218.385 251.554 216.41 243.278 C 202.722 185.724 179.175 138.807 146.815 104.57 C 128.038 84.719 107.224 70.028 84.488 60.573 C 76.942 57.449 69.003 54.986 60.702 53.225 C 59.234 52.908 57.902 52.594 57.751 52.516 C 57.582 52.457 57.413 52.475 57.362 52.569 Z" fill="#000000" stroke="none"/>
  <path d="M 250.359 81.905 C 245.553 82.684 241.562 84.859 238.372 88.412 C 234.958 92.21 232.907 97.065 232.454 102.373 C 232.078 106.804 232.802 111.093 234.544 114.971 C 240.251 127.58 254.923 131.257 265.036 122.621 C 268.834 119.36 271.492 114.623 272.501 109.36 C 273.174 105.785 273.234 104.778 272.934 102.377 C 272.441 98.643 271.572 95.591 270.257 93.087 C 266.583 86.053 259.926 81.773 252.726 81.809 C 251.663 81.821 250.597 81.85 250.359 81.905 Z" fill="#ff0000" stroke="none"/>
  <path d="M 160.741 86.774 C 155.415 86.978 150.812 87.626 144.886 89.025 C 144.58 89.079 144.326 89.21 144.326 89.267 C 144.325 89.344 145.642 89.563 147.247 89.768 C 171 92.663 190.416 99.102 203.4 108.361 C 215.009 116.658 221.733 126.801 223.606 138.883 C 223.961 141.112 224.036 146.119 223.778 148.553 C 222.936 156.159 220.031 163.616 215.501 169.805 C 215.09 170.371 213.605 172.206 212.205 173.868 C 207.234 179.824 204.819 183.668 204.064 186.878 C 203.345 189.88 204.596 191.775 207.501 192.121 C 209.594 192.348 213.388 191.37 215.8 189.962 C 216.94 189.286 220.411 186.44 222.524 184.439 C 224.62 182.439 228.529 178.151 230.033 176.202 C 236.321 167.991 239.705 159.646 240.511 150.345 C 241.375 140.321 238.039 129.199 231.278 119.494 C 229.558 117.044 224.753 111.503 222.54 109.449 C 209.714 97.507 192.61 89.583 174.764 87.346 C 172.417 87.059 165.492 86.584 164.207 86.631 C 163.937 86.648 162.364 86.711 160.741 86.774 Z" fill="#4169e1" stroke="none"/>
</svg>
