<svg xmlns="http://www.w3.org/2000/svg" viewBox="0 0 400 400">
  <path d="M 45.836 45.474 C 45.766 45.613 46.877 46.511 48.316 47.496 C 59.676 55.285 64.337 58.629 71.659 64.3 C 94.714 82.215 115.883 102.665 134.772 125.29 C 151.075 144.784 163.406 162.522 175.544 183.923 C 187.085 204.265 197.32 227.316 204.762 249.732 C 215.257 281.312 221.693 315.658 223.426 349.438 L 223.565 352.354 L 247.136 352.641 C 268.584 352.881 270.728 352.87 270.873 352.455 C 271.111 351.763 267.978 335.77 265.252 323.696 C 246.37 239.732 213.885 171.286 169.242 121.338 C 143.339 92.377 114.624 70.944 83.259 57.153 C 72.849 52.592 61.896 49 50.446 46.43 C 48.42 45.968 46.582 45.51 46.374 45.397 C 46.141 45.31 45.908 45.336 45.836 45.474 Z" style="transform-origin: 173.554px 219.777px;" fill="#000000" stroke="none"></path>
  <path d="M 312.088 88.272 C 305.456 89.408 299.952 92.582 295.55 97.765 C 290.841 103.306 288.01 110.389 287.388 118.132 C 286.869 124.597 287.868 130.853 290.27 136.511 C 298.143 154.904 318.384 160.27 332.335 147.673 C 337.574 142.914 341.243 136.004 342.634 128.325 C 343.563 123.111 343.645 121.641 343.231 118.138 C 342.551 112.691 341.352 108.238 339.539 104.585 C 334.469 94.323 325.287 88.079 315.353 88.132 C 313.885 88.148 312.415 88.191 312.088 88.272 Z" style="transform-origin: 351.759px 131.547px;" fill="#ff0000" stroke="none"></path>
  <path d="M 188.454 95.375 C 181.108 95.673 174.757 96.618 166.581 98.659 C 166.161 98.738 165.809 98.929 165.809 99.012 C 165.808 99.124 167.623 99.444 169.837 99.742 C 202.608 103.966 229.392 113.36 247.306 126.868 C 263.32 138.973 272.597 153.77 275.182 171.397 C 275.67 174.648 275.773 181.952 275.418 185.504 C 274.255 196.6 270.25 207.478 263.998 216.506 C 263.432 217.333 261.382 220.009 259.451 222.435 C 252.594 231.124 249.262 236.731 248.221 241.415 C 247.23 245.794 248.956 248.559 252.963 249.065 C 255.85 249.394 261.085 247.968 264.413 245.915 C 265.983 244.928 270.774 240.776 273.688 237.857 C 276.58 234.939 281.97 228.682 284.046 225.84 C 292.722 213.863 297.39 201.687 298.503 188.118 C 299.694 173.494 295.092 157.267 285.763 143.11 C 283.391 139.535 276.764 131.452 273.71 128.455 C 256.015 111.032 232.419 99.473 207.8 96.208 C 204.563 95.791 195.009 95.099 193.236 95.166 C 192.863 95.191 190.693 95.284 188.454 95.375 Z" style="transform-origin: 257.045px 189.262px;" fill="#4169e1" stroke="none"></path>
</svg>