<?xml version="1.0" standalone="no"?>
<!DOCTYPE svg PUBLIC "-//W3C//DTD SVG 20010904//EN"
 "http://www.w3.org/TR/2001/REC-SVG-20010904/DTD/svg10.dtd">
<svg version="1.0" xmlns="http://www.w3.org/2000/svg"
 width="230.000000pt" height="230.000000pt" viewBox="0 0 230.000000 230.000000"
 preserveAspectRatio="xMidYMid meet">

<g transform="translate(0.000000,230.000000) scale(0.100000,-0.100000)"
fill="#000000" stroke="none">
<path d="M80 2155 c-36 -19 -73 -99 -78 -167 -5 -72 19 -153 59 -196 25 -26
38 -32 73 -32 34 0 47 6 67 28 31 34 60 87 53 95 -3 3 -3 11 2 18 6 11 7 98 1
140 -6 36 -50 107 -73 117 -33 16 -73 14 -104 -3z"/>
<path d="M689 2062 c-69 -37 -150 -85 -180 -107 -30 -22 -65 -47 -79 -56 -48
-30 -175 -165 -221 -234 -59 -89 -99 -199 -106 -292 -5 -67 -4 -73 13 -73 77
1 381 73 396 95 4 5 8 6 8 1 0 -5 6 -4 13 1 13 11 98 41 137 48 13 2 39 15 59
28 39 26 71 39 71 31 0 -3 -11 -38 -24 -77 -13 -40 -38 -119 -56 -177 -18 -58
-43 -139 -56 -180 -13 -41 -24 -84 -24 -96 0 -12 -4 -24 -8 -26 -12 -4 -295
-925 -290 -940 4 -12 58 66 100 142 10 19 23 42 28 50 19 30 111 194 153 270
105 194 137 255 221 425 184 372 265 583 297 767 13 77 9 73 167 153 50 26 92
51 92 56 0 13 -14 11 -57 -5 -150 -56 -417 -70 -592 -31 -68 16 -105 39 -85
53 13 9 146 170 167 203 17 25 14 40 -7 38 -6 0 -68 -31 -137 -67z"/>
</g>
</svg>
