<svg xmlns="http://www.w3.org/2000/svg" viewBox="0 0 450 450">
  <path d="M 28.274 19.16 C 28.186 19.332 29.574 20.445 31.37 21.665 C 45.56 31.317 51.38 35.462 60.525 42.489 C 89.319 64.688 115.758 90.031 139.35 118.07 C 159.712 142.226 175.112 164.207 190.272 190.728 C 204.685 215.935 217.468 244.5 226.764 272.279 C 239.87 311.412 247.909 353.975 250.073 395.835 L 250.247 399.449 L 279.685 399.803 C 306.473 400.101 309.152 400.088 309.332 399.573 C 309.629 398.716 305.715 378.897 302.313 363.935 C 278.729 259.887 238.157 175.067 182.401 113.172 C 150.049 77.283 114.185 50.723 75.012 33.632 C 62.012 27.981 48.332 23.529 34.031 20.345 C 31.502 19.773 29.206 19.203 28.945 19.064 C 28.655 18.957 28.363 18.989 28.274 19.16 Z" fill="#000000" stroke="none"></path>
  <path d="M 360.807 72.195 C 352.525 73.604 345.65 77.537 340.152 83.959 C 334.272 90.826 330.735 99.604 329.958 109.198 C 329.31 117.209 330.558 124.962 333.558 131.973 C 343.39 154.767 368.671 161.417 386.095 145.805 C 392.637 139.909 397.22 131.345 398.958 121.829 C 400.118 115.369 400.22 113.547 399.702 109.206 C 398.855 102.455 397.356 96.937 395.092 92.41 C 388.76 79.694 377.292 71.957 364.885 72.023 C 363.051 72.042 361.216 72.096 360.807 72.195 Z"  fill="#ff0000" stroke="none"></path>
  <path d="M 206.396 80.998 C 197.22 81.367 189.29 82.538 179.077 85.066 C 178.552 85.165 178.114 85.402 178.113 85.505 C 178.112 85.643 180.379 86.04 183.143 86.409 C 224.073 91.643 257.525 103.284 279.899 120.025 C 299.899 135.025 311.485 153.361 314.713 175.204 C 315.322 179.234 315.451 188.286 315.008 192.686 C 313.557 206.437 308.553 219.917 300.746 231.103 C 300.039 232.129 297.478 235.445 295.066 238.452 C 286.503 249.218 282.341 256.168 281.041 261.973 C 279.803 267.398 281.959 270.824 286.963 271.451 C 290.57 271.86 297.108 270.092 301.264 267.547 C 303.225 266.325 309.208 261.18 312.848 257.563 C 316.46 253.947 323.192 246.193 325.783 242.671 C 336.62 227.829 342.45 212.74 343.84 195.925 C 345.328 177.804 339.579 157.694 327.929 140.15 C 324.966 135.72 316.69 125.706 312.876 121.991 C 290.775 100.4 261.306 86.076 230.557 82.03 C 226.514 81.513 214.583 80.654 212.368 80.739 C 211.902 80.769 209.192 80.884 206.396 80.998 Z" fill="#4169e1" stroke="none"></path>
</svg>