<svg xmlns="http://www.w3.org/2000/svg" viewBox="0 0 512 512">
  <path d="M28.275 19.19c-.107.203 1.577 1.524 3.755 2.972 17.211 11.455 24.269 16.374 35.361 24.714a613 613 0 0 1 95.604 89.698c24.696 28.668 43.375 54.755 61.761 86.23 17.481 29.915 32.986 63.816 44.26 96.783 15.896 46.442 25.647 96.956 28.271 146.634l.211 4.29 35.704.42c32.491.353 35.74.338 35.958-.273.361-1.017-4.387-24.538-8.513-42.295-28.604-123.483-77.813-224.145-145.437-297.602-39.238-42.592-82.737-74.113-130.248-94.397-15.767-6.706-32.359-11.989-49.705-15.768-3.067-.679-5.852-1.356-6.168-1.521-.352-.126-.706-.088-.814.115"/>
  <path d="M431.592 82.131c-10.044 1.672-18.383 6.339-25.051 13.961-7.132 8.149-11.422 18.567-12.364 29.953-.786 9.508.727 18.709 4.366 27.029 11.925 27.052 42.587 34.944 63.721 16.416 7.934-6.998 13.493-17.161 15.601-28.455 1.406-7.666 1.53-9.829.902-14.98-1.028-8.012-2.846-14.561-5.592-19.934-7.679-15.091-21.589-24.273-36.636-24.194-2.225.022-4.451.086-4.947.204" fill="red"/>
  <path d="M244.313 92.578c-11.13.438-20.748 1.828-33.135 4.828-.636.117-1.168.399-1.169.521-.001.164 2.749.635 6.101 1.072 49.643 6.212 90.215 20.027 117.352 39.895 24.257 17.802 38.309 39.563 42.225 65.486.738 4.783.895 15.525.358 20.747-1.761 16.32-7.829 32.318-17.299 45.593-.857 1.218-3.963 5.153-6.889 8.722-10.385 12.777-15.433 21.025-17.01 27.914-1.501 6.439 1.114 10.504 7.183 11.248 4.375.486 12.304-1.612 17.345-4.633 2.378-1.45 9.635-7.556 14.05-11.848 4.38-4.292 12.545-13.494 15.688-17.674 13.144-17.614 20.215-35.522 21.901-55.478 1.804-21.505-5.168-45.371-19.298-66.193-3.594-5.257-13.632-17.142-18.257-21.55-26.806-25.624-62.548-42.624-99.842-47.426-4.904-.613-19.375-1.632-22.061-1.532-.565.036-3.852.173-7.243.308" fill="#4169e1"/>
</svg>
